<?xml version="1.0" encoding="UTF-8"?>
<svg id="Layer_1" data-name="Layer 1" xmlns="http://www.w3.org/2000/svg" viewBox="0 0 115.44 127.92">
  <g id="_0ebs5X.tif" data-name="0ebs5X.tif">
    <g>
      <path d="M0,93.42l3.31-8.07c4.46-6.56,5.95-14.63,7.11-22.47.4-2.69.29-5.64,1.09-8.33.38-1.26.23-1.04.36-2.37s.83-2.6,1-3.74c.85-5.56,1.34-8.58,4.34-13.38,2.75-4.41,4.84-7.48,10.04-8.9.96-.26,1.32.75,1,1.13-.09.11-2.3.77-2.71,1.01-2.03,1.15-3.15,3.93-4.12,5.7-1.46,2.66-2.27,4.49-2.74,7.52-.03.19-.44.14-.48.32-.27,1.12-.03,3.05-.34,4.18-.21.76-.23-.11-.38,1.28-.04.36-.41.65-.49,1.2-.19,1.32.27,3.32.03,4.55-.06.29-.7-.03-.75.26-.06.33.07.79.01,1.18-.91,6.63-1.62,13.4-3.71,19.53-.43,1.26-.61,2.65-1.01,3.78-1.57,4.48-4.73,8.37-6.61,12.56s-3.1,10.48-1.19,14.84c.04.09.04,1.32.32,1.95,1.49,3.39,3.8,6.14,7.4,7.23.79.24,2.36.29,2.77.45.3.11.28.51.39.58.19.12,2.58-.69,3.01-.86.15-.06,1.74-.92,1.82-.98.26-.19.21-.76.42-1.08.26-.4.96-.27.7-1.18-.09-.31-1.27-.51-1.61-.72-.07-.04-1.18-1.09-1.2-1.17-.78-2.3,2.29-3.67,3.92-2.5.15.11.4.63.66.89.95.95,1.6.82.85,2.63h3.95c.88,0,4.98-2.2,5.73-2.89,1.02-.94,3.39-5.81,3.81-7.23.27-.89-.62-1.56,1.35-1.38-.21,1.11.56,2.37.71,3.25.1.61-.52,4.43-.76,4.84-.09.15-1.95,2.71-2.08,2.83-1.39,1.23-6.65,3.78-8.51,3.44-.4-.07-.66-.41-1.2-.48-1.04-.14-2.13.38-3-.47.47.85-.38,2.88-.97,3.46-.14.14-2.97,2-3.18,2.09-1.63.67-3.56.33-5.25-.06-.2-.05-.16-.39-.36-.45-.62-.18-1.44-.05-2.22-.37-4.73-1.94-9.8-8.21-10.77-13.19-.09-.44.28-.96-.48-.82v-9.58ZM21.08,108.28c-2.19-.27-1.75.71-.36,1.67l.36-1.67Z"/>
      <path d="M68.02,127.92l-.49-1.3c-.06-22.64.21-45.3-.22-67.93-.11-.11-1.99.11-2.47,0-.18-.04-.14-.41-.34-.46-.67-.19-1.82-.08-2.52-.31-2.43-.8-6.46-4.5-7.55-6.82-.37-.79-1.22-3.91-1.26-4.73-.22-4.71,2.91-9.51,6.97-11.73,3.69-2.01,10.96-1.43,14.47,1.07,3,2.13,4.73,4.7,5.31,8.3.12.75.31.97.34,1.14.05.41.05,1.54,0,1.95-.03.24-.19.36-.31,1.17-.55,3.87-4.85,8.08-8.28,9.64-.73.33-1.86.2-2.45.95l.48,69.06h-1.68ZM71.94,37.76c-3.02-2.67-5.33-2.95-8.95-1.46-1.35.56-2.07,1.38-2.85,2.36-.18.23-.52.09-.75.32-1.45,1.48-1.49,3.05-1.93,4.93-.05.21-.43.1-.48.52-.4,3.11,1.04,8.53,3.59,10.57.25.2,2.4,1.44,2.58,1.5.5.15,5.15.15,5.65,0,.77-.23,2.84-1.4,3.52-1.98,2.34-2,2.64-4.62,3.13-7.4.08-.44.51-.74.47-1.2-.03-.32-.4-.6-.47-1-.28-1.7-.48-3.2-1.27-4.72-.55-1.06-1.41-1.68-2.25-2.42Z"/>
      <path d="M52.12,14.47c1.36,1.38,2.56,1.62,4.53,1.6,2.67-.03,5.94-1.02,7.4-3.39.25-.41.74-1.77,1.05-2.3.4-.69.66-1.41,1.58-1.27.1.02,1.25.46,1.3.51.2.23-.09,1.26.05,1.39.06.06.65-.1,1.07.25.82.67,1.8,3.63,2.5,4.4.24.27.59.08.72.17.07.04,0,.84.32,1.48,3.92,8,11.86,16.88,19.49,21.47,1.79,1.08,7.75,4.23,9.74,4.05.86-.08,2.64-.87,4.11-.9,1.31-.03,2.42.22,3.7.25.24,1.15.63,2.28.73,3.46.06.7-.14,4.26.02,4.41.08.07,1.74.34,2.07.56s1.88,2.36,2.08,2.83c.84,1.9.64,3.9.59,5.94-.69.63-3.48.35-3.77.54-.08.05-.71,1.63-.74,1.78-.09.46.02,2.58-.05,2.69-.33.47-2.7,1.4-3.07,1.01-.31-1.3.54-.76.94-1.33.34-.48.14-1.14.31-1.61.12-.34.51-.5.61-.82.19-.6.17-2.89.32-3.15.18-.3,1.58-.22,1.64-.27.06-.05.02-1.27-.01-1.54l-1.18-3.72c.21.68-1.07,1.57-1.16,1.83-.43,1.25.21,1.27-.84,2.76-1.24,1.76-1.73,1.57-3.45,2.53-1.93,1.08-6.73,3.95-9.04,3.92-.31,0-.77.03-.96-.25-.69-.98,1.17-1.05,1.63-1.27,1.6-.76,3.19-2.18,4.56-2.98.67-.39,2.41-.79,3.2-1.35.95-.68,1.35-2.07,2-3.03-.84.05-1.68-.06-2.49-.27-2.34-.6-5.46-2.22-7.31-3.71-1.47-1.18-1.62-1.22-1.07-2.91.25-.77.12-.29.42-.81.74-1.29,1.47-2.4,2.89-2.86.3-.1.47.23.38-.46-.53-.05-1.24-.08-1.73-.26-1.46-.55-4.17-1.75-5.64-2.53-5.71-3.04-10.91-7.64-15.15-12.89-3.28-4.06-5.16-7.28-7.29-12.12-.3-.69-1-3.26-1.32-3.66-.21-.26-.67-.14-.88-.39-.17-.2.23-.74-.22-.96-.42.53-.34,1.4-.61,1.97-.08.16-2.32,2.5-2.49,2.59-2.92,1.67-8.36,1.81-11.44.68-.23-.08-1.78-1.5-1.86-1.42,0,.97-1.86,2.18-2.81,2.34s-2.65-.28-3.35-.96c-1.05-1.03-1.09-3.63-3.48-2.99-1.98.53-1.12,2.3-1.54,3.73s-1.91,3.21-3.54,2.91c-.96-.18-3.08-1.89-3.81-1.65-.56.18-.35,1.31-.51,1.9-.06.23-.94,2.12-1.06,2.29-.05.08-1.34,1.17-1.43,1.19-.68.22-1.47.06-2.17.1-.16-2.22.18-.96.85-1.41.7-.48,1.17-2.12,1.48-2.85.12-.29.51-.28.55-.46.09-.43-.1-.95,0-1.34.01-.06.73-.8.78-.83,1.52-.73,4.42,1.34,5.22.79.51-.35.74-4.86,1.6-5.41.22-.14,3.06-1.11,3.36-1.16.29-.05,2.81.58,3.22.74s2.18,1.9,2.27,2.14c.05.12-.17.41-.05.65.19.39.62.69.6,1.22.77.21,2.79-2.12,2.79-2.52,0-.33-.71-1.02-.86-1.69s-.37-3.9.14-4.19c.7-.4,2.43-.41,2.83.5.11.25.34,2.75.34,3.2,0,1.66-1.05,1.64.41,3.12Z"/>
      <path d="M43.5,29.56c1.26.78,2.64,2.84,3.4,4.14,1.03,1.75.87,2.51,1.31,4.44,1.82,7.97,2.14,16.18,2.1,24.52-.03,6.22.13,12,.95,17.95.25,1.78.41,2.6.93,4.15.26.79,1.12,3.65,1.53,4.05s1.43-.05,1.63,1.37c.38,2.72-1.24,1.12-1.69,1.57-.26.26.24,5.69.38,6.58.13.82.73,2.13.84,2.87.11.82.11,8.14-.05,8.61-.1.3-.54.34-.6.46-.78,1.49-1.56,2.98-2.72,4.35-2.4,2.83-8.04,4.43-11.48,2.38-.08-.05-1.3-1.03-1.46-1.17-.27-.24-1.7-1.88-1.79-2.04-.16-.26.09-.55.04-.8-.07-.32-.88-1.04.21-1.14.96-.08,1.8,1.77,2.42,1.88.28.05.76-.21,1.17-.2,1.63.04,2.74-.13,4.26-.94.45-.24,2.18-2.01,2.49-2.46.23-.32.14-.87.33-1.18,3.3-5.73-.52-14.01,3.17-19.04.45-.61,1.29-.11.4-1.57-2.77-4.56-3.1-7.22-4.3-12.24-.04-.18-.87-.16-.47-.63.08-.09.58.21.47-.37-.04-.21-.38-.02-.47-.29-.25-.69-.75-4.53-.89-5.53-.41-2.89.04-5.89-.29-8.57-.06-.46-.46-.23-.52-.69-.26-2.04.12-4.8.03-6.97-.21-4.83-.44-12.48-1.79-16.87-.45-1.47-2.01-4.1-3.26-5.13-.22-.18-1.22-.83-1.57-1.06-.56-.38-1.36-.35-1.54-1.12-.24-1.04,1.83-.92,2.51-.82,1.48.22,3.07.72,4.36,1.51Z"/>
      <path d="M88.1,75.98c.08.04,1.12,1.29,1.14,1.38.03.1,0,1.81-.02,1.97-.06.43-.52.38-.59.61-.23.79-.13,1.88-.48,2.83-1.14,3.14-5.02,6.42-8.3,7.03-1.28.24-2.7-.06-3.82.25-.23.33-.12,1.54-.07,2.02.29,3.37,3.35,4.34,5.6,6.13,7.02,5.61,10.8,12.97,7.54,22.1-.11.3-.56.25-.67.57-.39,1.09.09,2.82-1.96,2.48.09-1.04-.12-2.23,0-3.24.19-1.68.77-3.08.5-5.04-.91-6.56-3.47-10.37-8.29-14.71-1.06-.95-1.97-1.79-3.09-2.65-2.13-1.63-2.52-1.7-2.81-4.44-.02-.17-.52.05-.46-.72.04-.48.48-.33.47-.46-.03-.42-.29-.8-.23-1.46.09-1.01.45-1.97.51-2.98,2.27.3,3.71-.37,5.69-1.14.33-.13.77,0,1.09-.11s.31-.53.58-.67c3.31-1.68,5.15-4.4,6.41-7.9.16-.45.13-2.53,1.27-1.88Z"/>
      <path d="M28.82,59.82c1.22,2.7.66,14.32-.13,17.37-.2.79-.8,1.56-.42,2.33-1.08-.19-.54.34-.8.88-.51,1.05-2.53,3.05-3.7,3.37-.48.13-.93-.02-1.33.07-.18.04-.15.43-.33.47-.99.24-4.31-.36-5.14-.97-.57-.42-1.37-1.8-1.4-2.52-.05-1.03.34-.74.41-.88.05-.11-.39-.48.57-.76,1.5-.43,3.91-.34,3.34,1.78-.29.29-2.05-1.04-2.1.11,0,.08.65,1.46.71,1.51.11.08.84.19,1.06.19,1.73.07,4.6-1.76,5.42-3.32,3.6-6.8,1.78-15.17,1.91-22.52.19-.82.37-1.5,1.27-.91,1.18.78.21,2.78.66,3.78Z"/>
      <path d="M103.14,73.7c-.69,1.1-2.93,2.75-4.37,2.93s-6.03-.05-7.36-.49c-.57-.19-.39-.93-.4-1.4.09-.09,1.86.07,2.29.01.53-.07.83-.43,1.2-.48,2.12-.3,2.47.22,4.43-1.32,1.72-1.35,3.12-3.68,3.53-5.81.12-.65.03-1.33.05-1.98,1.98-.26,2.1.39,2.32,2.11.25,2.01-.61,4.73-1.68,6.43Z"/>
      <path d="M20.67,100.54s-.65-1.07-.67-1.14c-.2-.53.82-.54,1.15-.47.12.03.4.67.89.82,1.96.61,5.15-1.57,5.92-3.41.25-.6.01-1.07.08-1.33.04-.16.34-.06.47-.51.37-1.31-.13-4.13-.01-5.63.43.03,1.09-.13,1.45.11.17.11,1.36,3.52,1.41,3.86.28,1.71-.53,2.61-.93,4.08-.15.55.08,1.24-.23,1.93-.4.9-1.88,2.08-2.83,2.44-1.39.53-3.56.82-4.97.28-.14-.05-1.66-.95-1.73-1.02Z"/>
      <path d="M55.29.67c.08-.05-.08-.4.38-.46.73-.09,4.92-.1,5.48.07.23.07,2.31,2.15,2.48,2.43.9,1.5,1.52,4.86.75,6.45-.36.75-1.69,1.96-2.47,1.14-.17-.18.25-3.89.07-4.86-.24-1.29-1.04-1.61-1.35-2.12-.06-.1.27-.43.18-.65-.05-.11-1.82-1.51-1.94-1.55-1.23-.49-1.93.2-2.05,1.44-.16,1.59,1.21,2.42-1.36,2.94l-.12-.72c-1.74-.11-.68-1.18-.72-2.01,0-.13-.31-.14-.38-.25-.12-.2-.05-.49-.26-.62-1.6-.97-2.41,1.46-3.08.49-.76-1.11,2.19-2.27,3.13-2.18.5.05,1.04.61,1.27.46Z"/>
      <path d="M86.86,42.72c.56.21,2.03,1.08,2.67,1.33.23.09,1.43.32,1.48.26.18-.19-.54-1.01,1.2-.72-.06.34.13,1.24-.04,1.41-.05.06-.38,0-.58.12-.13.08-.05.35-.45.41-1.66.23-3.94-1.43-5.64-1.69l.81,1.86c1.56,1.53,2.56,3.28,2.3,5.57-.74.77-2.54-3.2-2.79-3.57-.3-.45-1.33-1.33-1.58-1.76-1.96-3.31-1.1-4.64,2.61-3.21Z"/>
      <path d="M71,43.74c.23.41.75,1.62.84,2.15.7,4.23-4.91,4.55-7.89,5.14-.27-1.99.11-2.26,1.7-3.22.23-.14,1.26-.78,1.33-.81.25-.1.75,0,.8-.04.11-.09-.25-.62-.25-.82,0-.16.53-.03.52-.49-.03-.82-1.55-3.28.33-3.5,1.48-.17,1.97.43,2.63,1.59Z"/>
    </g>
  </g>
</svg>